<svg data-v-0dd9719b="" version="1.0" xmlns="http://www.w3.org/2000/svg" xmlns:xlink="http://www.w3.org/1999/xlink" width="100%" height="100%" viewBox="0 0 340.000000 250.000000" preserveAspectRatio="xMidYMid meet" color-interpolation-filters="sRGB" style="margin: auto;"> <rect data-v-0dd9719b="" x="0" y="0" width="100%" height="100%" fill="#fff" fill-opacity="1" class="background"></rect> <rect data-v-0dd9719b="" x="0" y="0" width="100%" height="100%" fill="url(#watermark)" fill-opacity="1" class="watermarklayer"></rect> <g data-v-0dd9719b="" fill="#333" class="icon-text-wrapper icon-svg-group iconsvg" transform="translate(47.540000915527344,94.58637428283691)"><g class="iconsvg-imagesvg" transform="translate(0,0)"><g><rect fill="#333" fill-opacity="0" stroke-width="2" x="0" y="0" width="60" height="60.8272506082725" class="image-rect"></rect> <svg x="0" y="0" width="60" height="60.8272506082725" filtersec="colorsb8159465854" class="image-svg-svg primary" style="overflow: visible;"><svg xmlns="http://www.w3.org/2000/svg" viewBox="-0.01667151227593422 -0.0010506667895242572 98.62667083740234 99.98663330078125"><path d="M4.5 70.71a49.73 49.73 0 0 0 13.39 17.61L97.16 46.7z" fill="#2a3d8f"></path><path d="M19.15 89.34a50 50 0 0 0 79.46-27.68z" fill="#272660"></path><path d="M76.66 7.71A50 50 0 0 0 0 51.29l82.29-39.45a51 51 0 0 0-5.63-4.13z" fill="#29aae1"></path><path d="M88 25L.06 52.31A50.25 50.25 0 0 0 4.15 70z" fill="#1f76bb"></path></svg></svg> <!----></g></g> <g transform="translate(67,18.468626022338867)"><g data-gra="path-name" fill-rule="" class="tp-name iconsvg-namesvg"><g transform="scale(1)"><g><path d="M18.37-23.23L0.67-23.23 0.67-17.4 6.19-17.4 6.19 0 12.82 0 12.82-17.4 18.37-17.4ZM27.48 0.33C34.67 0.33 36.92-2.38 36.92-7 36.92-11.21 36.21-13.05 30.42-14.56 27.55-15.3 27.04-15.53 27.04-16.6 27.04-17.71 27.88-18.21 30.02-18.21 31.86-18.21 34.78-17.77 35.75-17.4L35.75-22.73C34.44-23.16 32.63-23.56 29.72-23.56 24.17-23.56 20.62-21.82 20.62-16.33 20.62-12.22 21.82-10.61 26.91-9.44 29.82-8.74 30.26-8.17 30.26-7.2 30.26-5.76 29.89-5.29 27.11-5.29 25.04-5.29 22.32-5.72 20.78-6.16L20.78-0.44C22.42-0.03 24.9 0.33 27.48 0.33ZM40.87 0L47.53 0 47.53-6.33 49.9-6.33C56.87-6.33 59.51-8.43 59.51-14.96 59.51-20.95 57.23-23.23 49.9-23.23L40.87-23.23ZM47.53-11.61L47.53-18.11 48.93-18.11C51.64-18.11 52.71-17.37 52.71-14.79 52.71-12.35 51.71-11.61 48.93-11.61ZM87.76-23.23L70.05-23.23 70.05-17.4 75.57-17.4 75.57 0 82.2 0 82.2-17.4 87.76-17.4ZM111.22 0L104.99-8.5C107.81-9.54 109.04-11.71 109.04-15.46 109.04-20.99 105.97-23.23 100.04-23.23L90.6-23.23 90.6 0 97.26 0 97.26-7.8 98.57-7.8 103.35 0ZM97.26-18.14L98.87-18.14C101.58-18.14 102.48-17.61 102.48-15.46 102.48-13.29 101.58-12.55 98.87-12.55L97.26-12.55ZM129.86 0L136.96 0 128.49-23.23 119.49-23.23 110.95 0 117.91 0 119.55-4.89 128.26-4.89ZM121.33-10.24L123.74-17.5 124.14-17.5 126.52-10.24ZM139-23.23L139 0 147.9 0C154.86 0 159.32-2.64 159.32-11.61 159.32-21.29 154.86-23.23 147.9-23.23ZM145.66-5.69L145.66-17.67 147.5-17.67C151.25-17.67 152.39-16.47 152.39-11.61 152.39-6.96 151.38-5.69 147.5-5.69ZM169.89-5.72L169.89-9 177.69-9 177.69-14.53 169.89-14.53 169.89-17.47 178.39-17.47 178.39-23.23 163.23-23.23 163.23 0 178.59 0 178.59-5.72Z" transform="translate(-0.6700000166893005, 23.559999465942383)"></path></g> <!----> <!----> <!----> <!----> <!----> <!----> <!----></g></g> <!----></g></g><defs v-gra="od"></defs></svg>